<svg width="1101" height="235" viewBox="0 0 1101 235" fill="none" xmlns="http://www.w3.org/2000/svg">
<path d="M1094.81 156.488C1091.4 156.488 1088.62 159.262 1088.62 162.677C1088.62 166.091 1091.4 168.865 1094.81 168.865C1098.23 168.865 1101 166.091 1101 162.677C1101 159.262 1098.23 156.488 1094.81 156.488ZM1094.81 167.897C1091.93 167.897 1089.6 165.555 1089.6 162.677C1089.6 159.798 1091.95 157.469 1094.81 157.469C1097.68 157.469 1100.02 159.811 1100.02 162.677C1100.02 165.555 1097.69 167.897 1094.81 167.897ZM1096.81 161.63C1096.81 160.505 1096.01 159.837 1094.84 159.837H1092.86V165.477H1093.84V163.435H1094.9L1095.92 165.477H1096.97L1095.84 163.226C1096.43 162.951 1096.81 162.402 1096.81 161.63ZM1094.8 162.559H1093.84V160.688H1094.8C1095.45 160.688 1095.84 161.015 1095.84 161.617C1095.84 162.232 1095.45 162.559 1094.8 162.559ZM349.087 93.8665V78.8981H326.138V167.949H349.087V114.553C349.087 104.883 355.289 100.134 364.958 100.134H377.519V78.8981H366.79C358.39 78.8981 351.102 83.2813 349.087 93.8665ZM399.03 43.6753C391.179 43.6753 385.161 49.8772 385.161 57.7278C385.161 65.3951 391.179 71.5971 399.03 71.5971C406.88 71.5971 412.899 65.3951 412.899 57.7278C412.899 49.8772 406.867 43.6753 399.03 43.6753ZM387.581 167.949H410.466V78.8981H387.581V167.949ZM519.549 123.424C519.549 148.846 498.941 169.454 473.518 169.454C463.26 169.454 453.958 166.091 446.5 160.426V194.105H423.615V78.8981H446.5V86.4346C453.958 80.756 463.26 77.4065 473.518 77.4065C498.928 77.3934 519.549 98.0011 519.549 123.424ZM496.494 123.424C496.494 109.62 485.294 98.4198 471.49 98.4198C457.687 98.4198 446.486 109.62 446.486 123.424C446.486 137.228 457.687 148.428 471.49 148.428C485.307 148.428 496.494 137.228 496.494 123.424ZM917.519 115.612L904.16 111.949C895.368 109.659 891.953 106.964 891.953 102.319C891.953 97.7917 896.768 94.6253 903.65 94.6253C910.205 94.6253 915.347 98.9301 915.347 104.412V104.923H936.452V104.412C936.452 88.2533 923.276 77.3934 903.65 77.3934C884.22 77.3934 870.102 88.2402 870.102 103.196C870.102 114.827 877.809 123.594 891.259 127.231L904.056 130.725C913.777 133.42 917.388 136.403 917.388 141.755C917.388 147.394 912.168 151.189 904.396 151.189C896.297 151.189 890.84 146.06 890.84 138.444V137.934H868.44V138.444C868.44 156.71 883.147 169.467 904.213 169.467C924.506 169.467 939.239 157.011 939.239 139.831C939.226 131.418 935.458 120.401 917.519 115.612ZM600.776 78.8981H623.66V167.949H600.776V160.413C593.318 166.091 584.015 169.441 573.757 169.441C548.334 169.441 527.727 148.833 527.727 123.411C527.727 97.988 548.334 77.3803 573.757 77.3803C584.015 77.3803 593.318 80.743 600.776 86.4084V78.8981ZM600.776 123.424C600.776 109.607 589.576 98.4198 575.772 98.4198C561.968 98.4198 550.768 109.62 550.768 123.424C550.768 137.228 561.968 148.428 575.772 148.428C589.576 148.428 600.763 137.228 600.776 123.424ZM706.34 47.195H729.224V167.949H706.34V160.413C698.882 166.091 689.579 169.441 679.321 169.441C653.898 169.441 633.29 148.833 633.29 123.411C633.29 97.988 653.898 77.3803 679.321 77.3803C689.579 77.3803 698.882 80.743 706.34 86.4084V47.195ZM706.34 123.424C706.34 109.62 695.139 98.4198 681.336 98.4198C667.532 98.4198 656.332 109.62 656.332 123.424C656.332 137.228 667.532 148.428 681.336 148.428C695.152 148.428 706.34 137.228 706.34 123.424ZM835.547 167.949H858.431V78.8981H835.547V167.949ZM846.995 43.6753C839.145 43.6753 833.126 49.8772 833.126 57.7278C833.126 65.3951 839.145 71.5971 846.995 71.5971C854.846 71.5971 860.864 65.3951 860.864 57.7278C860.864 49.8772 854.846 43.6753 846.995 43.6753ZM1038.2 123.424C1038.2 148.846 1017.59 169.454 992.165 169.454C966.742 169.454 946.135 148.846 946.135 123.424C946.135 98.0011 966.742 77.3934 992.165 77.3934C1017.59 77.3934 1038.2 98.0011 1038.2 123.424ZM1017.17 123.424C1017.17 109.62 1005.97 98.4198 992.165 98.4198C978.361 98.4198 967.161 109.62 967.161 123.424C967.161 137.228 978.361 148.428 992.165 148.428C1005.98 148.428 1017.17 137.228 1017.17 123.424ZM337.364 47.195H249.529V67.6195H282.044V167.936H304.863V67.6325H337.377V47.195H337.364ZM781.561 143.56L761.189 78.8981H737.14L767.692 167.949H795.247L825.982 78.8981H801.933L781.561 143.56ZM1071.76 93.8665V78.8981H1048.81V167.949H1071.76V114.553C1071.76 104.883 1077.96 100.134 1087.63 100.134H1100.19V78.8981H1089.46C1081.06 78.8981 1073.76 83.2813 1071.76 93.8665Z" fill="#FAF1ED"/>
<path d="M234.208 117.104C234.208 181.779 181.779 234.208 117.104 234.208C52.4286 234.208 0 181.779 0 117.104C0 52.4286 52.4286 0 117.104 0C181.779 0 234.208 52.4286 234.208 117.104Z" fill="#FAF1ED"/>
<path d="M189.42 94.2459L203.551 78.8588H172.215C156.527 68.1428 137.581 61.9016 117.091 61.9016C96.627 61.9016 77.7334 68.1559 62.0715 78.8588H30.6562L44.7872 94.2459C36.1255 102.149 30.6955 113.519 30.6955 126.171C30.6955 150.024 50.034 169.376 73.8866 169.376C85.2306 169.376 95.541 165.005 103.248 157.861L117.091 172.921L130.934 157.861C138.641 165.005 148.951 169.363 160.282 169.363C184.148 169.363 203.499 150.024 203.499 126.158C203.512 113.532 198.082 102.149 189.42 94.2459ZM73.8997 155.415C57.7537 155.415 44.6695 142.33 44.6695 126.185C44.6695 110.039 57.7537 96.9543 73.8997 96.9543C90.0456 96.9543 103.13 110.039 103.13 126.185C103.143 142.317 90.0456 155.415 73.8997 155.415ZM117.117 125.334C117.117 106.1 103.117 89.5879 84.668 82.5355C94.6513 78.3616 105.603 76.0457 117.104 76.0457C128.605 76.0457 139.57 78.3616 149.553 82.5355C131.104 89.5879 117.117 106.1 117.117 125.334ZM160.295 155.415C144.149 155.415 131.065 142.33 131.065 126.185C131.065 110.039 144.149 96.9543 160.295 96.9543C176.441 96.9543 189.525 110.039 189.525 126.185C189.538 142.317 176.441 155.415 160.295 155.415ZM160.295 110.85C151.829 110.85 144.973 117.706 144.973 126.171C144.973 134.637 151.843 141.493 160.295 141.493C168.76 141.493 175.617 134.637 175.617 126.171C175.63 117.706 168.76 110.85 160.295 110.85ZM89.2344 126.171C89.2344 134.637 82.3783 141.493 73.9128 141.493C65.4473 141.493 58.5911 134.637 58.5911 126.171C58.5911 117.706 65.4473 110.85 73.9128 110.85C82.3783 110.85 89.2344 117.706 89.2344 126.171Z" fill="black"/>
</svg>
